<?xml version="1.0" encoding="UTF-8"?>
<!-- Generator: Adobe Illustrator 22.1.0, SVG Export Plug-In . SVG Version: 6.00 Build 0)  -->
<svg version="1.1" id="Capa_1" xmlns="http://www.w3.org/2000/svg" xmlns:xlink="http://www.w3.org/1999/xlink" x="0px" y="0px" viewBox="0 0 489 351" style="enable-background:new 0 0 489 351;" xml:space="preserve">
<style type="text/css">
	.st0{fill:#CE5958;}
	.st1{fill:none;stroke:#FFFFFF;stroke-width:7.5407;stroke-miterlimit:10;}
	.st2{fill:none;stroke:#FFFFFF;stroke-width:4.3857;stroke-miterlimit:10;}
	.st3{fill:#FFFFFF;}
	.st4{font-family:'OpenSans-Semibold';}
	.st5{font-size:50.3234px;}
	.st6{fill:none;stroke:#FFFFFF;stroke-width:10.1442;stroke-miterlimit:10;}
	.st7{fill:none;}
</style>
<g>
	<rect class="st0" width="489" height="351"/>
	<g>
		<g>
			<path class="st1" d="M170,41.8h-33.8c-1.6,0-2.6,1.8-1.6,3.1l86.1,122.7c1.2,1.7,3.1,2.6,5.1,2.6l0,0l18.7-26.7l-69.6-99.2     C173.8,42.8,171.9,41.8,170,41.8z"/>
			<path class="st1" d="M319,41.8c-2,0-3.8,1-4.9,2.6l-69.6,99.2l-17.2,24.5c-0.6,0.9,0,2.2,1.1,2.2h34.8h1.1c1.3,0,2.6-0.7,3.4-1.8     L354.4,45c0.9-1.3,0-3.1-1.6-3.1H319z"/>
		</g>
		<path class="st1" d="M279.3,174.8V185c0,0.8-0.6,1.4-1.4,1.4h-66.8c-0.8,0-1.4-0.6-1.4-1.4v-10.2"/>
		<circle class="st2" cx="244.5" cy="256.6" r="35.6"/>
		<text transform="matrix(1 0 0 1 230.1373 272.9672)" class="st3 st4 st5">1</text>
		<circle class="st6" cx="244.5" cy="256.6" r="48.3"/>
		<path class="st7" d="M309.4,256.6c0,13.2-4,25.4-10.7,35.7c23.6-0.3,42.7-19.6,42.7-43.2c0-23.8-19.4-43.2-43.2-43.2    c-3.9,0-7.8,0.5-11.4,1.5C300.6,219.3,309.4,237,309.4,256.6z"/>
		<path class="st7" d="M244.9,245.1c1.1-14.9,8.4-28.1,19.3-37.1c-6.1-2.5-12.7-3.8-19.7-3.8c-6.7,0-13.2,1.3-19.1,3.6    C236.4,216.7,243.8,230,244.9,245.1z"/>
		<path class="st7" d="M202.5,207.3c-3.4-0.9-7.1-1.4-10.8-1.4c-23.8,0-43.2,19.4-43.2,43.2c0,23.4,18.6,42.4,41.8,43.2    c-6.8-10.2-10.7-22.5-10.7-35.6C179.6,236.9,188.5,219.2,202.5,207.3z"/>
		<path class="st7" d="M244.9,253.2c-1.5,20.3-14.5,37.5-32.4,45.1c8.9,6.8,20,10.9,32,10.9c12.2,0,23.4-4.2,32.3-11.2    C259.1,290.3,246.4,273.3,244.9,253.2z"/>
		<path class="st7" d="M234.9,249.1c0-15.1-7.8-28.4-19.6-36.1c-14.1,9.4-23.4,25.5-23.4,43.7c0,12.9,4.7,24.7,12.4,33.8    C222,285,234.9,268.6,234.9,249.1z"/>
		<path class="st7" d="M274,213.2c-11.5,7.8-19.2,20.9-19.2,35.9c0,19.2,12.6,35.5,30,41.1c7.6-9.1,12.2-20.8,12.2-33.6    C297,238.6,287.9,222.7,274,213.2z"/>
		<path class="st3" d="M298.1,195.8c-7.7,0-14.9,1.6-21.5,4.5c3.6,2.1,7,4.4,10.1,7.1c3.6-1,7.5-1.5,11.4-1.5    c23.8,0,43.2,19.4,43.2,43.2c0,23.6-19.1,42.9-42.7,43.2c-2.3,3.5-4.9,6.7-7.8,9.7c2.4,0.3,4.8,0.5,7.3,0.5    c29.4,0,53.4-23.9,53.4-53.4C351.5,219.7,327.5,195.8,298.1,195.8z"/>
		<path class="st3" d="M148.5,249.1c0-23.8,19.4-43.2,43.2-43.2c3.7,0,7.3,0.5,10.8,1.4c3.2-2.7,6.6-5.1,10.3-7.2    c-6.5-2.8-13.6-4.3-21.1-4.3c-29.4,0-53.4,23.9-53.4,53.4c0,29.4,23.9,53.4,53.4,53.4c2.2,0,4.4-0.2,6.5-0.4    c-2.9-3-5.6-6.3-7.9-9.8C167.2,291.5,148.5,272.5,148.5,249.1z"/>
		<ellipse class="st3" cx="244.9" cy="249.1" rx="0.2" ry="4.1"/>
		<g>
			<path class="st1" d="M355.1,67.7h18.5L297.4,185c-0.5,0.7-1.3,1.2-2.1,1.2h-6.2c-0.6,0-1.1-0.5-1.1-1.1v-10.3"/>
			<path class="st1" d="M133.9,67.7h-18.5L191.6,185c0.5,0.7,1.3,1.2,2.1,1.2h6.2c0.6,0,1.1-0.5,1.1-1.1v-10.3"/>
		</g>
	</g>
</g>
</svg>