<svg id="Capa_1" data-name="Capa 1" xmlns="http://www.w3.org/2000/svg" viewBox="0 0 212.16 20.35"><defs><style>.cls-1{fill:#fff;}.cls-2{fill:#3b4d85}</style></defs><title>pleca-institucional-UV</title><rect class="cls-2" width="212.16" height="20.35"/><path class="cls-1" d="M479.88,403.71h-1.74v7.05a6.91,6.91,0,0,1-.15,1.52,2.25,2.25,0,0,1-.61,1.13,3.23,3.23,0,0,1-1.12.69,4.67,4.67,0,0,1-1.71.28,3.89,3.89,0,0,1-1.44-.26,3.37,3.37,0,0,1-1.17-.77,2.23,2.23,0,0,1-.57-.93,5.77,5.77,0,0,1-.16-1.57v-7.14h-1.74v7.53a4.13,4.13,0,0,0,1.56,3.59,5.81,5.81,0,0,0,3.47,1.12,5.48,5.48,0,0,0,4-1.34,4.83,4.83,0,0,0,1.34-3.57Z" transform="translate(-462 -399.65)"/><path class="cls-1" d="M484.62,407.35H483v8h1.58v-5.69a6.28,6.28,0,0,1,.6-.6,3.09,3.09,0,0,1,.57-.38,2.1,2.1,0,0,1,.4-.13,1.94,1.94,0,0,1,.42,0,1.38,1.38,0,0,1,1.14.52,2.17,2.17,0,0,1,.42,1.39v4.93h1.58v-4.89A3.29,3.29,0,0,0,489,408a2.62,2.62,0,0,0-1.92-.79,2.8,2.8,0,0,0-1.29.32,3.43,3.43,0,0,0-1.09.87h0Z" transform="translate(-462 -399.65)"/><rect class="cls-1" x="30.91" y="7.7" width="1.58" height="7.96"/><path class="cls-1" d="M494.65,405a.94.94,0,1,0-.28.66.93.93,0,0,0,.28-.68Z" transform="translate(-462 -399.65)"/><polygon class="cls-1" points="38.28 15.82 38.81 15.82 42.32 7.7 40.64 7.7 38.55 12.6 36.4 7.7 34.68 7.7 38.28 15.82"/><path class="cls-1" d="M512.91,413l-.35.21-.35.19a5.17,5.17,0,0,1-1,.41,4,4,0,0,1-1.05.14,2.62,2.62,0,0,1-1.81-.6,2.94,2.94,0,0,1-.87-1.79h5.6a4.94,4.94,0,0,0-.94-3.3,3.17,3.17,0,0,0-2.52-1.08,3.5,3.5,0,0,0-2.68,1.12,4.13,4.13,0,0,0-1,2.92,4.64,4.64,0,0,0,1,2.93,3.42,3.42,0,0,0,2.86,1.28,6.61,6.61,0,0,0,1.49-.15,4.43,4.43,0,0,0,1.24-.51l.22-.12.22-.16V413Zm-5.42-2.5a2.49,2.49,0,0,1,.7-1.44,2,2,0,0,1,1.45-.51,1.73,1.73,0,0,1,1.33.53,2.12,2.12,0,0,1,.53,1.42Z" transform="translate(-462 -399.65)"/><path class="cls-1" d="M516.13,407.35v8h1.58v-4.15a2.71,2.71,0,0,1,.56-1.74,1.69,1.69,0,0,1,1.37-.71,1.23,1.23,0,0,1,.42.09,2.4,2.4,0,0,1,.49.25,2.19,2.19,0,0,1,.3.2l.27.22.83-1.35a5.19,5.19,0,0,0-.59-.48,2.85,2.85,0,0,0-.55-.3,2.6,2.6,0,0,0-.38-.11,2,2,0,0,0-.38,0,1.8,1.8,0,0,0-1.13.47,5.53,5.53,0,0,0-1.18,1.5h0v-1.83Z" transform="translate(-462 -399.65)"/><path class="cls-1" d="M528.49,407.87a5.75,5.75,0,0,0-1.2-.5,4.29,4.29,0,0,0-1.14-.16,3,3,0,0,0-1.91.58,1.92,1.92,0,0,0-.72,1.59,1.78,1.78,0,0,0,.58,1.35,7.11,7.11,0,0,0,1.28,1l.69.4c.22.12.42.24.6.36a3.45,3.45,0,0,1,.41.37.57.57,0,0,1,.16.39.72.72,0,0,1-.35.65,1.73,1.73,0,0,1-.82.26,3.34,3.34,0,0,1-1.15-.26,6.84,6.84,0,0,1-1.45-.81v1.72q.43.21.81.36a5.22,5.22,0,0,0,1.34.32l.62,0a2.78,2.78,0,0,0,1.88-.64,2.11,2.11,0,0,0,.75-1.68,1.66,1.66,0,0,0-.08-.52,1.83,1.83,0,0,0-.26-.49,2.81,2.81,0,0,0-.56-.58q-.36-.29-.9-.65a14.22,14.22,0,0,1-1.49-1c-.3-.24-.44-.44-.44-.62a.62.62,0,0,1,.28-.52,1.29,1.29,0,0,1,.76-.2,3.49,3.49,0,0,1,1,.19,5.35,5.35,0,0,1,1.26.62v-1.54Z" transform="translate(-462 -399.65)"/><rect class="cls-1" x="69.83" y="7.7" width="1.58" height="7.96"/><path class="cls-1" d="M533.56,405a.94.94,0,1,0-.28.66.92.92,0,0,0,.28-.68Z" transform="translate(-462 -399.65)"/><path class="cls-1" d="M543.3,403.22h-1.58v4.31a6,6,0,0,0-.71-.21,4.07,4.07,0,0,0-.64-.09l-.16,0h-.16a3.89,3.89,0,0,0-2.85,1.11,3.84,3.84,0,0,0-1.12,2.85,4.26,4.26,0,0,0,1,3,3.68,3.68,0,0,0,2.82,1.12h3.35ZM541.73,414h-1.6a2.18,2.18,0,0,1-1.9-.74,3.11,3.11,0,0,1-.53-1.86,2.8,2.8,0,0,1,.71-2,2.43,2.43,0,0,1,1.84-.75l.38,0,.36.05.35.09.38.12Z" transform="translate(-462 -399.65)"/><path class="cls-1" d="M553,413.91a3.78,3.78,0,0,1-.49.31.83.83,0,0,1-.35.12.28.28,0,0,1-.22-.09.52.52,0,0,1-.08-.34v-4.08a2.33,2.33,0,0,0-.84-2,3.33,3.33,0,0,0-2-.63,4,4,0,0,0-1.52.27,2.89,2.89,0,0,0-1.12.8V410a4,4,0,0,1,1.05-.9,3,3,0,0,1,1.14-.39h.32a1.55,1.55,0,0,1,1.08.33,1.38,1.38,0,0,1,.35,1.06v.42l-1.4.52-.19.07-.2.07a7.28,7.28,0,0,0-1.6.82,1.76,1.76,0,0,0-.73,1.56,1.94,1.94,0,0,0,.54,1.35,1.83,1.83,0,0,0,1.41.58,3.16,3.16,0,0,0,1.09-.2,3.76,3.76,0,0,0,1.06-.6,1,1,0,0,0,.4.61,1.5,1.5,0,0,0,.81.19h.22l.2,0a2.22,2.22,0,0,0,.48-.18,4.74,4.74,0,0,0,.62-.39v-.94Zm-2.71-.2a3,3,0,0,1-.66.48,1.55,1.55,0,0,1-.72.18,1.13,1.13,0,0,1-.82-.31,1.08,1.08,0,0,1-.32-.81,1.24,1.24,0,0,1,.75-1.12,12.37,12.37,0,0,1,1.76-.76v2.34Z" transform="translate(-462 -399.65)"/><path class="cls-1" d="M561.93,403.22h-1.58v4.31a5.94,5.94,0,0,0-.71-.21,4.12,4.12,0,0,0-.64-.09l-.16,0h-.16a3.89,3.89,0,0,0-2.85,1.11,3.84,3.84,0,0,0-1.12,2.85,4.25,4.25,0,0,0,1,3,3.68,3.68,0,0,0,2.82,1.12h3.35ZM560.35,414h-1.59a2.18,2.18,0,0,1-1.9-.74,3.11,3.11,0,0,1-.53-1.86,2.8,2.8,0,0,1,.71-2,2.42,2.42,0,0,1,1.84-.75l.38,0,.36.05.35.09.38.12Z" transform="translate(-462 -399.65)"/><polygon class="cls-1" points="118.02 3.73 116.3 3.73 112.69 12.22 109.06 3.73 107.32 3.73 112.55 15.93 112.9 15.93 118.02 3.73"/><path class="cls-1" d="M587.32,413l-.35.21-.35.19a5.21,5.21,0,0,1-1,.41,4,4,0,0,1-1.05.14,2.62,2.62,0,0,1-1.81-.6,2.94,2.94,0,0,1-.87-1.79h5.6a4.94,4.94,0,0,0-.94-3.3,3.17,3.17,0,0,0-2.52-1.08,3.5,3.5,0,0,0-2.68,1.12,4.13,4.13,0,0,0-1,2.92,4.64,4.64,0,0,0,1,2.93,3.42,3.42,0,0,0,2.86,1.28,6.62,6.62,0,0,0,1.49-.15,4.42,4.42,0,0,0,1.24-.51l.22-.12.22-.16V413Zm-5.42-2.5a2.5,2.5,0,0,1,.7-1.44,2,2,0,0,1,1.44-.51,1.73,1.73,0,0,1,1.33.53,2.14,2.14,0,0,1,.53,1.42Z" transform="translate(-462 -399.65)"/><path class="cls-1" d="M590.39,407.35v8H592v-4.15a2.72,2.72,0,0,1,.56-1.74,1.69,1.69,0,0,1,1.37-.71,1.23,1.23,0,0,1,.42.09,2.37,2.37,0,0,1,.49.25,2,2,0,0,1,.3.2l.27.22.83-1.35a5.1,5.1,0,0,0-.58-.48,2.85,2.85,0,0,0-.55-.3,2.66,2.66,0,0,0-.38-.11,2,2,0,0,0-.38,0,1.8,1.8,0,0,0-1.13.47,5.53,5.53,0,0,0-1.18,1.5h0v-1.83Z" transform="translate(-462 -399.65)"/><path class="cls-1" d="M604.59,413.91a3.86,3.86,0,0,1-.49.31.83.83,0,0,1-.35.12.28.28,0,0,1-.22-.09.5.5,0,0,1-.08-.34v-4.08a2.33,2.33,0,0,0-.84-2,3.33,3.33,0,0,0-2-.63,4,4,0,0,0-1.52.27,2.86,2.86,0,0,0-1.11.8V410a3.94,3.94,0,0,1,1.05-.9,3,3,0,0,1,1.14-.39h.32a1.56,1.56,0,0,1,1.08.33,1.39,1.39,0,0,1,.35,1.06v.42l-1.4.52-.19.07-.2.07a7.29,7.29,0,0,0-1.6.82,1.76,1.76,0,0,0-.73,1.56,1.92,1.92,0,0,0,.54,1.35,1.83,1.83,0,0,0,1.41.58,3.16,3.16,0,0,0,1.09-.2,3.72,3.72,0,0,0,1.05-.6,1,1,0,0,0,.4.61,1.49,1.49,0,0,0,.81.19h.22l.2,0a2.22,2.22,0,0,0,.48-.18,4.81,4.81,0,0,0,.62-.39v-.94Zm-2.71-.2a2.89,2.89,0,0,1-.66.48,1.54,1.54,0,0,1-.72.18,1.12,1.12,0,0,1-.82-.31,1.08,1.08,0,0,1-.32-.81,1.24,1.24,0,0,1,.75-1.12,12.32,12.32,0,0,1,1.76-.76v2.34Z" transform="translate(-462 -399.65)"/><path class="cls-1" d="M612.72,407.76l-.35-.16-.36-.12a5,5,0,0,0-.73-.19,4.64,4.64,0,0,0-.86-.07,3.71,3.71,0,0,0-2.87,1.16,4.45,4.45,0,0,0-1.06,3.13,3.82,3.82,0,0,0,1.13,2.86,4,4,0,0,0,2.91,1.11h.35l.36,0c.32,0,.63-.1.93-.17a2.66,2.66,0,0,0,.74-.26v-1.54q-.5.21-.91.35a3.75,3.75,0,0,1-.82.17l-.19,0h-.18a2.71,2.71,0,0,1-2-.7,2.54,2.54,0,0,1-.74-1.94,2.79,2.79,0,0,1,.67-1.95,2.25,2.25,0,0,1,1.75-.74h.24l.22,0a3.25,3.25,0,0,1,.8.22,6.35,6.35,0,0,1,.94.5v-1.67Z" transform="translate(-462 -399.65)"/><path class="cls-1" d="M615.86,407.35v8h1.58v-4.15a2.71,2.71,0,0,1,.56-1.74,1.69,1.69,0,0,1,1.37-.71,1.23,1.23,0,0,1,.42.09,2.44,2.44,0,0,1,.49.25,2.18,2.18,0,0,1,.3.2l.27.22.83-1.35a5.19,5.19,0,0,0-.59-.48,2.88,2.88,0,0,0-.55-.3,2.65,2.65,0,0,0-.38-.11,2,2,0,0,0-.38,0,1.8,1.8,0,0,0-1.12.47,5.55,5.55,0,0,0-1.18,1.5h0v-1.83Z" transform="translate(-462 -399.65)"/><path class="cls-1" d="M630.3,415.31v-8h-1.58v5.71a2.82,2.82,0,0,1-.88.83,2,2,0,0,1-1,.29,1.55,1.55,0,0,1-1.22-.46,1.92,1.92,0,0,1-.41-1.31v-5.05h-1.58v5a3.28,3.28,0,0,0,.77,2.33,2.58,2.58,0,0,0,2,.82,2.12,2.12,0,0,0,.42,0,3.46,3.46,0,0,0,.43-.11,3.09,3.09,0,0,0,.8-.38,3.42,3.42,0,0,0,.71-.63v1Z" transform="translate(-462 -399.65)"/><polygon class="cls-1" points="177.74 7.7 170.95 7.7 170.95 9.12 174.99 9.12 170.77 15.66 177.76 15.66 177.76 14.24 173.5 14.24 177.74 7.7"/><path class="cls-1" d="M648.76,413.91a4,4,0,0,1-.49.31.83.83,0,0,1-.35.12.29.29,0,0,1-.22-.09.52.52,0,0,1-.08-.33v-4.08a2.33,2.33,0,0,0-.84-2,3.33,3.33,0,0,0-2-.63,4,4,0,0,0-1.53.27,2.87,2.87,0,0,0-1.12.8V410a4,4,0,0,1,1.05-.9,3,3,0,0,1,1.14-.39h.32a1.56,1.56,0,0,1,1.08.33,1.38,1.38,0,0,1,.35,1.05v.43l-1.4.51-.19.07-.2.07a7.28,7.28,0,0,0-1.59.82,1.76,1.76,0,0,0-.73,1.56,1.92,1.92,0,0,0,.54,1.35,1.83,1.83,0,0,0,1.41.58,3.16,3.16,0,0,0,1.09-.2,3.73,3.73,0,0,0,1.05-.6,1,1,0,0,0,.4.61,1.51,1.51,0,0,0,.81.19h.22l.2,0a2.25,2.25,0,0,0,.48-.18,4.68,4.68,0,0,0,.62-.39v-.94Zm-2.71-.2a2.9,2.9,0,0,1-.66.48,1.55,1.55,0,0,1-.72.18,1.12,1.12,0,0,1-.82-.31,1.07,1.07,0,0,1-.32-.81,1.24,1.24,0,0,1,.75-1.12,12.16,12.16,0,0,1,1.76-.76v2.34Z" transform="translate(-462 -399.65)"/><path class="cls-1" d="M652.73,407.35h-1.58v8h1.58v-5.69a5.84,5.84,0,0,1,.6-.59,2.94,2.94,0,0,1,.57-.38,2,2,0,0,1,.4-.13,1.94,1.94,0,0,1,.42,0,1.38,1.38,0,0,1,1.14.52,2.17,2.17,0,0,1,.42,1.39v4.93h1.58v-4.89a3.28,3.28,0,0,0-.79-2.42,2.62,2.62,0,0,0-1.92-.79,2.79,2.79,0,0,0-1.28.32,3.42,3.42,0,0,0-1.09.87h0Z" transform="translate(-462 -399.65)"/><path class="cls-1" d="M667.22,413.91a4,4,0,0,1-.49.31.83.83,0,0,1-.35.12.28.28,0,0,1-.22-.09.51.51,0,0,1-.08-.33v-4.08a2.33,2.33,0,0,0-.84-2,3.33,3.33,0,0,0-2-.63,4,4,0,0,0-1.52.27,2.86,2.86,0,0,0-1.12.8V410a4,4,0,0,1,1.05-.9,3,3,0,0,1,1.14-.39h.32a1.55,1.55,0,0,1,1.08.33,1.38,1.38,0,0,1,.35,1.05v.43l-1.4.51-.19.07-.2.07a7.2,7.2,0,0,0-1.6.82,1.75,1.75,0,0,0-.73,1.56,1.93,1.93,0,0,0,.54,1.35,1.83,1.83,0,0,0,1.41.58,3.18,3.18,0,0,0,1.09-.2,3.71,3.71,0,0,0,1.05-.6,1,1,0,0,0,.4.61,1.5,1.5,0,0,0,.81.19h.22l.2,0a2.23,2.23,0,0,0,.48-.18,4.68,4.68,0,0,0,.62-.39v-.94Zm-2.71-.2a2.86,2.86,0,0,1-.66.48,1.55,1.55,0,0,1-.72.18,1.12,1.12,0,0,1-.82-.31,1.08,1.08,0,0,1-.32-.81,1.24,1.24,0,0,1,.75-1.12,12.23,12.23,0,0,1,1.76-.76v2.34Z" transform="translate(-462 -399.65)"/></svg>